<svg width="2199" height="1364" viewBox="0 0 2199 1364" fill="none" xmlns="http://www.w3.org/2000/svg">
<line x1="1194.5" y1="464.381" x2="1560.8" y2="252.898" stroke="#82D1F5" stroke-width="10"/>
<line x1="1565.5" y1="252.896" x2="1931.8" y2="464.379" stroke="#82D1F5" stroke-width="10"/>
<line x1="1192" y1="891.195" x2="1192" y2="468.23" stroke="#82D1F5" stroke-width="10"/>
<path d="M1929.02 471.227C1640.8 97.8014 1479.61 97.557 1197.02 473.23" stroke="#82D1F5" stroke-width="10"/>
<path d="M1196 892.227C1483.19 1266.44 1644.39 1267.12 1928 892.227" stroke="#82D1F5" stroke-width="10"/>
<line x1="1559" y1="1107.23" x2="1559" y2="257.227" stroke="#82D1F5" stroke-width="10"/>
<line x1="1558.66" y1="1105.72" x2="1192.66" y2="468.718" stroke="#82D1F5" stroke-width="10"/>
<path d="M1925.49 895.547C2286.5 140.727 1406 -94.7734 1194.49 470.547" stroke="#82D1F5" stroke-width="10"/>
<line x1="1192.67" y1="889.73" x2="1558.67" y2="254.73" stroke="#82D1F5" stroke-width="10"/>
<path d="M1194.46 887.934C1403.95 1548.78 2330.49 1114.23 1926.46 463.934" stroke="#82D1F5" stroke-width="10"/>
<line x1="1924.67" y1="894.723" x2="1558.67" y2="259.723" stroke="#82D1F5" stroke-width="10"/>
<line x1="1558.67" y1="1100.73" x2="1924.67" y2="465.73" stroke="#82D1F5" stroke-width="10"/>
<line x1="1924" y1="891.195" x2="1924" y2="468.23" stroke="#82D1F5" stroke-width="10"/>
<line x1="1199.5" y1="886.896" x2="1565.8" y2="1098.38" stroke="#82D1F5" stroke-width="10"/>
<line x1="1561.5" y1="1099.38" x2="1927.8" y2="887.898" stroke="#82D1F5" stroke-width="10"/>
<path d="M365.75 257L467 307V407H365.75V257Z" stroke="#006CA9" stroke-width="15" stroke-linecap="round" stroke-linejoin="round"/>
<path d="M365.75 257L317 307V407H365.75H467M433.25 407V347L399.5 332V407" stroke="#006CA9" stroke-width="15" stroke-linecap="round" stroke-linejoin="round"/>
<path d="M56.75 767L158 817V917H56.75V767Z" stroke="#006CA9" stroke-width="15" stroke-linecap="round" stroke-linejoin="round"/>
<path d="M56.75 767L8 817V917H56.75H158M124.25 917V857L90.5 842V917" stroke="#006CA9" stroke-width="15" stroke-linecap="round" stroke-linejoin="round"/>
<path d="M690.75 767L792 817V917H690.75V767Z" stroke="#006CA9" stroke-width="15" stroke-linecap="round" stroke-linejoin="round"/>
<path d="M690.75 767L642 817V917H690.75H792M758.25 917V857L724.5 842V917" stroke="#006CA9" stroke-width="15" stroke-linecap="round" stroke-linejoin="round"/>
<mask id="path-22-inside-1_527_122" fill="white">
<path fill-rule="evenodd" clip-rule="evenodd" d="M86.75 424C92.9 424 97.925 429.45 98.045 436.3L98.225 443.267L98.4275 448.892L98.855 457.892L99.1475 462.983L99.3125 465.667H116.255C123.05 465.667 127.918 472.108 127.73 478.958L127.692 482.708L127.73 485.042L127.805 487.667L127.955 490.592L128.157 493.808L128.45 497.308L128.825 501.108L129.305 505.175L129.898 509.533L130.235 511.808L131.007 516.575L131.915 521.608C133.227 528.5 134.93 536.108 137.135 544.4L138.883 550.733C139.498 552.9 140.15 555.092 140.833 557.333H150.5C152.489 557.333 154.397 558.211 155.803 559.774C157.21 561.337 158 563.457 158 565.667C158 567.877 157.21 569.996 155.803 571.559C154.397 573.122 152.489 574 150.5 574H15.5C13.5109 574 11.6032 573.122 10.1967 571.559C8.79018 569.996 8 567.877 8 565.667C8 563.457 8.79018 561.337 10.1967 559.774C11.6032 558.211 13.5109 557.333 15.5 557.333H24.9275C30.065 537.683 33.275 518.192 35.255 500.658L35.9825 493.75L36.59 487.083L36.8525 483.842L37.3025 477.575L37.6475 471.6L37.91 465.958L38.0975 460.667L38.2175 455.75L38.2925 451.233V444.067L38.2025 438.167C38.1933 437.781 38.1833 437.394 38.1725 437.008C38.1233 435.321 38.3797 433.64 38.9265 432.065C39.4734 430.49 40.2995 429.053 41.3559 427.84C42.4123 426.626 43.6773 425.661 45.0759 425.002C46.4745 424.342 47.9781 424.001 49.4975 424H86.75ZM83.135 440.667H53.255L53.3 445.183L53.2925 450.75L53.2325 455.258L53.12 460.175L52.9475 465.458L52.7 471.092L52.55 474.042L52.175 480.158L51.695 486.575L51.4175 489.875L50.7875 496.675C48.9137 515.788 45.8032 534.726 41.48 553.342L40.5125 557.333H96.0125L94.58 550.033L93.905 546.4L92.63 539.183L91.4675 532.042L90.4025 524.992L89.4275 518.058L88.5425 511.258L87.74 504.617L87.0275 498.133L86.09 488.783L85.55 482.817L85.085 477.092L84.3275 466.425L83.78 456.925L83.48 450.675L83.18 442.092L83.135 440.667ZM112.692 482.333H100.58L100.978 486.733L101.885 495.875C103.872 514.617 106.872 535.875 111.402 557.333H125.03C122.99 550.3 121.28 543.667 119.848 537.433L118.497 531.35L117.335 525.542L116.33 520.017L115.475 514.775C115.346 513.942 115.221 513.109 115.1 512.275L114.448 507.467C114.257 505.969 114.082 504.469 113.922 502.967L113.502 498.75L113.187 494.85L112.962 491.25L112.813 487.967L112.7 483.625L112.692 482.333Z"/>
</mask>
<path fill-rule="evenodd" clip-rule="evenodd" d="M86.75 424C92.9 424 97.925 429.45 98.045 436.3L98.225 443.267L98.4275 448.892L98.855 457.892L99.1475 462.983L99.3125 465.667H116.255C123.05 465.667 127.918 472.108 127.73 478.958L127.692 482.708L127.73 485.042L127.805 487.667L127.955 490.592L128.157 493.808L128.45 497.308L128.825 501.108L129.305 505.175L129.898 509.533L130.235 511.808L131.007 516.575L131.915 521.608C133.227 528.5 134.93 536.108 137.135 544.4L138.883 550.733C139.498 552.9 140.15 555.092 140.833 557.333H150.5C152.489 557.333 154.397 558.211 155.803 559.774C157.21 561.337 158 563.457 158 565.667C158 567.877 157.21 569.996 155.803 571.559C154.397 573.122 152.489 574 150.5 574H15.5C13.5109 574 11.6032 573.122 10.1967 571.559C8.79018 569.996 8 567.877 8 565.667C8 563.457 8.79018 561.337 10.1967 559.774C11.6032 558.211 13.5109 557.333 15.5 557.333H24.9275C30.065 537.683 33.275 518.192 35.255 500.658L35.9825 493.75L36.59 487.083L36.8525 483.842L37.3025 477.575L37.6475 471.6L37.91 465.958L38.0975 460.667L38.2175 455.75L38.2925 451.233V444.067L38.2025 438.167C38.1933 437.781 38.1833 437.394 38.1725 437.008C38.1233 435.321 38.3797 433.64 38.9265 432.065C39.4734 430.49 40.2995 429.053 41.3559 427.84C42.4123 426.626 43.6773 425.661 45.0759 425.002C46.4745 424.342 47.9781 424.001 49.4975 424H86.75ZM83.135 440.667H53.255L53.3 445.183L53.2925 450.75L53.2325 455.258L53.12 460.175L52.9475 465.458L52.7 471.092L52.55 474.042L52.175 480.158L51.695 486.575L51.4175 489.875L50.7875 496.675C48.9137 515.788 45.8032 534.726 41.48 553.342L40.5125 557.333H96.0125L94.58 550.033L93.905 546.4L92.63 539.183L91.4675 532.042L90.4025 524.992L89.4275 518.058L88.5425 511.258L87.74 504.617L87.0275 498.133L86.09 488.783L85.55 482.817L85.085 477.092L84.3275 466.425L83.78 456.925L83.48 450.675L83.18 442.092L83.135 440.667ZM112.692 482.333H100.58L100.978 486.733L101.885 495.875C103.872 514.617 106.872 535.875 111.402 557.333H125.03C122.99 550.3 121.28 543.667 119.848 537.433L118.497 531.35L117.335 525.542L116.33 520.017L115.475 514.775C115.346 513.942 115.221 513.109 115.1 512.275L114.448 507.467C114.257 505.969 114.082 504.469 113.922 502.967L113.502 498.75L113.187 494.85L112.962 491.25L112.813 487.967L112.7 483.625L112.692 482.333Z" fill="#006CA9" stroke="#006CA9" stroke-width="2" mask="url(#path-22-inside-1_527_122)"/>
<mask id="path-23-inside-2_527_122" fill="white">
<path fill-rule="evenodd" clip-rule="evenodd" d="M395.75 954C401.9 954 406.925 959.45 407.045 966.3L407.225 973.267L407.428 978.892L407.855 987.892L408.147 992.983L408.313 995.667H425.255C432.05 995.667 436.918 1002.11 436.73 1008.96L436.692 1012.71L436.73 1015.04L436.805 1017.67L436.955 1020.59L437.157 1023.81L437.45 1027.31L437.825 1031.11L438.305 1035.17L438.898 1039.53L439.235 1041.81L440.007 1046.57L440.915 1051.61C442.227 1058.5 443.93 1066.11 446.135 1074.4L447.883 1080.73C448.498 1082.9 449.15 1085.09 449.833 1087.33H459.5C461.489 1087.33 463.397 1088.21 464.803 1089.77C466.21 1091.34 467 1093.46 467 1095.67C467 1097.88 466.21 1100 464.803 1101.56C463.397 1103.12 461.489 1104 459.5 1104H324.5C322.511 1104 320.603 1103.12 319.197 1101.56C317.79 1100 317 1097.88 317 1095.67C317 1093.46 317.79 1091.34 319.197 1089.77C320.603 1088.21 322.511 1087.33 324.5 1087.33H333.927C339.065 1067.68 342.275 1048.19 344.255 1030.66L344.982 1023.75L345.59 1017.08L345.853 1013.84L346.303 1007.57L346.648 1001.6L346.91 995.958L347.098 990.667L347.217 985.75L347.293 981.233V974.067L347.202 968.167C347.193 967.781 347.183 967.394 347.172 967.008C347.123 965.321 347.38 963.64 347.927 962.065C348.473 960.49 349.3 959.053 350.356 957.84C351.412 956.626 352.677 955.661 354.076 955.002C355.475 954.342 356.978 954.001 358.497 954H395.75ZM392.135 970.667H362.255L362.3 975.183L362.292 980.75L362.233 985.258L362.12 990.175L361.948 995.458L361.7 1001.09L361.55 1004.04L361.175 1010.16L360.695 1016.57L360.418 1019.87L359.787 1026.67C357.914 1045.79 354.803 1064.73 350.48 1083.34L349.513 1087.33H405.012L403.58 1080.03L402.905 1076.4L401.63 1069.18L400.467 1062.04L399.403 1054.99L398.428 1048.06L397.543 1041.26L396.74 1034.62L396.027 1028.13L395.09 1018.78L394.55 1012.82L394.085 1007.09L393.328 996.425L392.78 986.925L392.48 980.675L392.18 972.092L392.135 970.667ZM421.692 1012.33H409.58L409.978 1016.73L410.885 1025.87C412.872 1044.62 415.872 1065.87 420.402 1087.33H434.03C431.99 1080.3 430.28 1073.67 428.848 1067.43L427.497 1061.35L426.335 1055.54L425.33 1050.02L424.475 1044.77C424.346 1043.94 424.221 1043.11 424.1 1042.28L423.448 1037.47C423.257 1035.97 423.082 1034.47 422.922 1032.97L422.502 1028.75L422.187 1024.85L421.962 1021.25L421.813 1017.97L421.7 1013.62L421.692 1012.33Z"/>
</mask>
<path fill-rule="evenodd" clip-rule="evenodd" d="M395.75 954C401.9 954 406.925 959.45 407.045 966.3L407.225 973.267L407.428 978.892L407.855 987.892L408.147 992.983L408.313 995.667H425.255C432.05 995.667 436.918 1002.11 436.73 1008.96L436.692 1012.71L436.73 1015.04L436.805 1017.67L436.955 1020.59L437.157 1023.81L437.45 1027.31L437.825 1031.11L438.305 1035.17L438.898 1039.53L439.235 1041.81L440.007 1046.57L440.915 1051.61C442.227 1058.5 443.93 1066.11 446.135 1074.4L447.883 1080.73C448.498 1082.9 449.15 1085.09 449.833 1087.33H459.5C461.489 1087.33 463.397 1088.21 464.803 1089.77C466.21 1091.34 467 1093.46 467 1095.67C467 1097.88 466.21 1100 464.803 1101.56C463.397 1103.12 461.489 1104 459.5 1104H324.5C322.511 1104 320.603 1103.12 319.197 1101.56C317.79 1100 317 1097.88 317 1095.67C317 1093.46 317.79 1091.34 319.197 1089.77C320.603 1088.21 322.511 1087.33 324.5 1087.33H333.927C339.065 1067.68 342.275 1048.19 344.255 1030.66L344.982 1023.75L345.59 1017.08L345.853 1013.84L346.303 1007.57L346.648 1001.6L346.91 995.958L347.098 990.667L347.217 985.75L347.293 981.233V974.067L347.202 968.167C347.193 967.781 347.183 967.394 347.172 967.008C347.123 965.321 347.38 963.64 347.927 962.065C348.473 960.49 349.3 959.053 350.356 957.84C351.412 956.626 352.677 955.661 354.076 955.002C355.475 954.342 356.978 954.001 358.497 954H395.75ZM392.135 970.667H362.255L362.3 975.183L362.292 980.75L362.233 985.258L362.12 990.175L361.948 995.458L361.7 1001.09L361.55 1004.04L361.175 1010.16L360.695 1016.57L360.418 1019.87L359.787 1026.67C357.914 1045.79 354.803 1064.73 350.48 1083.34L349.513 1087.33H405.012L403.58 1080.03L402.905 1076.4L401.63 1069.18L400.467 1062.04L399.403 1054.99L398.428 1048.06L397.543 1041.26L396.74 1034.62L396.027 1028.13L395.09 1018.78L394.55 1012.82L394.085 1007.09L393.328 996.425L392.78 986.925L392.48 980.675L392.18 972.092L392.135 970.667ZM421.692 1012.33H409.58L409.978 1016.73L410.885 1025.87C412.872 1044.62 415.872 1065.87 420.402 1087.33H434.03C431.99 1080.3 430.28 1073.67 428.848 1067.43L427.497 1061.35L426.335 1055.54L425.33 1050.02L424.475 1044.77C424.346 1043.94 424.221 1043.11 424.1 1042.28L423.448 1037.47C423.257 1035.97 423.082 1034.47 422.922 1032.97L422.502 1028.75L422.187 1024.85L421.962 1021.25L421.813 1017.97L421.7 1013.62L421.692 1012.33Z" fill="#006CA9" stroke="#006CA9" stroke-width="2" mask="url(#path-23-inside-2_527_122)"/>
<mask id="path-24-inside-3_527_122" fill="white">
<path fill-rule="evenodd" clip-rule="evenodd" d="M720.75 424C726.9 424 731.925 429.45 732.045 436.3L732.225 443.267L732.428 448.892L732.855 457.892L733.147 462.983L733.313 465.667H750.255C757.05 465.667 761.918 472.108 761.73 478.958L761.692 482.708L761.73 485.042L761.805 487.667L761.955 490.592L762.157 493.808L762.45 497.308L762.825 501.108L763.305 505.175L763.898 509.533L764.235 511.808L765.007 516.575L765.915 521.608C767.227 528.5 768.93 536.108 771.135 544.4L772.883 550.733C773.498 552.9 774.15 555.092 774.833 557.333H784.5C786.489 557.333 788.397 558.211 789.803 559.774C791.21 561.337 792 563.457 792 565.667C792 567.877 791.21 569.996 789.803 571.559C788.397 573.122 786.489 574 784.5 574H649.5C647.511 574 645.603 573.122 644.197 571.559C642.79 569.996 642 567.877 642 565.667C642 563.457 642.79 561.337 644.197 559.774C645.603 558.211 647.511 557.333 649.5 557.333H658.927C664.065 537.683 667.275 518.192 669.255 500.658L669.982 493.75L670.59 487.083L670.853 483.842L671.303 477.575L671.648 471.6L671.91 465.958L672.098 460.667L672.217 455.75L672.293 451.233V444.067L672.202 438.167C672.193 437.781 672.183 437.394 672.172 437.008C672.123 435.321 672.38 433.64 672.927 432.065C673.473 430.49 674.3 429.053 675.356 427.84C676.412 426.626 677.677 425.661 679.076 425.002C680.475 424.342 681.978 424.001 683.497 424H720.75ZM717.135 440.667H687.255L687.3 445.183L687.292 450.75L687.233 455.258L687.12 460.175L686.948 465.458L686.7 471.092L686.55 474.042L686.175 480.158L685.695 486.575L685.418 489.875L684.787 496.675C682.914 515.788 679.803 534.726 675.48 553.342L674.513 557.333H730.012L728.58 550.033L727.905 546.4L726.63 539.183L725.467 532.042L724.403 524.992L723.428 518.058L722.543 511.258L721.74 504.617L721.027 498.133L720.09 488.783L719.55 482.817L719.085 477.092L718.328 466.425L717.78 456.925L717.48 450.675L717.18 442.092L717.135 440.667ZM746.692 482.333H734.58L734.978 486.733L735.885 495.875C737.872 514.617 740.872 535.875 745.402 557.333H759.03C756.99 550.3 755.28 543.667 753.848 537.433L752.497 531.35L751.335 525.542L750.33 520.017L749.475 514.775C749.346 513.942 749.221 513.109 749.1 512.275L748.448 507.467C748.257 505.969 748.082 504.469 747.922 502.967L747.502 498.75L747.187 494.85L746.962 491.25L746.813 487.967L746.7 483.625L746.692 482.333Z"/>
</mask>
<path fill-rule="evenodd" clip-rule="evenodd" d="M720.75 424C726.9 424 731.925 429.45 732.045 436.3L732.225 443.267L732.428 448.892L732.855 457.892L733.147 462.983L733.313 465.667H750.255C757.05 465.667 761.918 472.108 761.73 478.958L761.692 482.708L761.73 485.042L761.805 487.667L761.955 490.592L762.157 493.808L762.45 497.308L762.825 501.108L763.305 505.175L763.898 509.533L764.235 511.808L765.007 516.575L765.915 521.608C767.227 528.5 768.93 536.108 771.135 544.4L772.883 550.733C773.498 552.9 774.15 555.092 774.833 557.333H784.5C786.489 557.333 788.397 558.211 789.803 559.774C791.21 561.337 792 563.457 792 565.667C792 567.877 791.21 569.996 789.803 571.559C788.397 573.122 786.489 574 784.5 574H649.5C647.511 574 645.603 573.122 644.197 571.559C642.79 569.996 642 567.877 642 565.667C642 563.457 642.79 561.337 644.197 559.774C645.603 558.211 647.511 557.333 649.5 557.333H658.927C664.065 537.683 667.275 518.192 669.255 500.658L669.982 493.75L670.59 487.083L670.853 483.842L671.303 477.575L671.648 471.6L671.91 465.958L672.098 460.667L672.217 455.75L672.293 451.233V444.067L672.202 438.167C672.193 437.781 672.183 437.394 672.172 437.008C672.123 435.321 672.38 433.64 672.927 432.065C673.473 430.49 674.3 429.053 675.356 427.84C676.412 426.626 677.677 425.661 679.076 425.002C680.475 424.342 681.978 424.001 683.497 424H720.75ZM717.135 440.667H687.255L687.3 445.183L687.292 450.75L687.233 455.258L687.12 460.175L686.948 465.458L686.7 471.092L686.55 474.042L686.175 480.158L685.695 486.575L685.418 489.875L684.787 496.675C682.914 515.788 679.803 534.726 675.48 553.342L674.513 557.333H730.012L728.58 550.033L727.905 546.4L726.63 539.183L725.467 532.042L724.403 524.992L723.428 518.058L722.543 511.258L721.74 504.617L721.027 498.133L720.09 488.783L719.55 482.817L719.085 477.092L718.328 466.425L717.78 456.925L717.48 450.675L717.18 442.092L717.135 440.667ZM746.692 482.333H734.58L734.978 486.733L735.885 495.875C737.872 514.617 740.872 535.875 745.402 557.333H759.03C756.99 550.3 755.28 543.667 753.848 537.433L752.497 531.35L751.335 525.542L750.33 520.017L749.475 514.775C749.346 513.942 749.221 513.109 749.1 512.275L748.448 507.467C748.257 505.969 748.082 504.469 747.922 502.967L747.502 498.75L747.187 494.85L746.962 491.25L746.813 487.967L746.7 483.625L746.692 482.333Z" fill="#006CA9" stroke="#006CA9" stroke-width="2" mask="url(#path-24-inside-3_527_122)"/>
<line x1="90.5" y1="593" x2="90.5" y2="749" stroke="#82D1F5" stroke-width="15"/>
<line x1="154.25" y1="478.505" x2="289.35" y2="400.505" stroke="#82D1F5" stroke-width="15"/>
<line x1="485.75" y1="400.505" x2="620.85" y2="478.505" stroke="#82D1F5" stroke-width="15"/>
<line x1="173.984" y1="547.099" x2="620.519" y2="804.906" stroke="#82D1F5" stroke-width="15"/>
<line x1="165.25" y1="805.309" x2="611.785" y2="547.502" stroke="#82D1F5" stroke-width="15"/>
<path d="M489 1059C1068.07 1022.88 1033.2 402.795 489 319.799" stroke="#82D1F5" stroke-width="15"/>
<line x1="161.75" y1="928.505" x2="296.85" y2="1006.5" stroke="#82D1F5" stroke-width="15"/>
<line x1="478.25" y1="1006.5" x2="613.35" y2="928.505" stroke="#82D1F5" stroke-width="15"/>
<line x1="711.5" y1="593" x2="711.5" y2="749" stroke="#82D1F5" stroke-width="15"/>
<circle cx="394" cy="671" r="30" fill="#FA8F00"/>
<circle cx="2010" cy="640.227" r="30" fill="#FA8F00"/>
<circle cx="1802" cy="679.227" r="30" fill="#FA8F00"/>
<circle cx="1314" cy="670.227" r="30" fill="#FA8F00"/>
<circle cx="1197" cy="468.227" r="50" fill="#006CA9"/>
<circle cx="1563" cy="1103.23" r="50" fill="#006CA9"/>
<circle cx="1930" cy="891.227" r="50" fill="#006CA9"/>
<circle cx="1197" cy="891.227" r="50" fill="#006CA9"/>
<circle cx="1930" cy="468.227" r="50" fill="#006CA9"/>
<circle cx="1563" cy="256.227" r="50" fill="#006CA9"/>
<path d="M217.307 54.6705L209.778 56.8011C209.305 55.5464 208.607 54.3272 207.683 53.1435C206.784 51.9361 205.553 50.9418 203.99 50.1605C202.428 49.3793 200.427 48.9886 197.989 48.9886C194.651 48.9886 191.869 49.758 189.643 51.2969C187.442 52.812 186.341 54.7415 186.341 57.0852C186.341 59.1686 187.098 60.8139 188.614 62.0213C190.129 63.2287 192.496 64.2348 195.716 65.0398L203.812 67.0284C208.689 68.2121 212.323 70.0232 214.714 72.4616C217.106 74.8764 218.301 77.9896 218.301 81.8011C218.301 84.9261 217.402 87.7197 215.602 90.1818C213.827 92.6439 211.341 94.5852 208.145 96.0057C204.949 97.4261 201.232 98.1364 196.994 98.1364C191.431 98.1364 186.826 96.929 183.18 94.5142C179.535 92.0994 177.226 88.572 176.256 83.9318L184.21 81.9432C184.968 84.8788 186.4 87.0805 188.507 88.5483C190.638 90.0161 193.42 90.75 196.852 90.75C200.759 90.75 203.86 89.9214 206.156 88.2642C208.476 86.5833 209.636 84.571 209.636 82.2273C209.636 80.3333 208.973 78.7472 207.648 77.4688C206.322 76.1667 204.286 75.196 201.54 74.5568L192.449 72.4261C187.454 71.2424 183.784 69.4077 181.44 66.9219C179.12 64.4124 177.96 61.2756 177.96 57.5114C177.96 54.4337 178.824 51.7112 180.553 49.3438C182.304 46.9763 184.684 45.1179 187.69 43.7685C190.721 42.419 194.153 41.7443 197.989 41.7443C203.386 41.7443 207.624 42.928 210.702 45.2955C213.803 47.6629 216.005 50.7879 217.307 54.6705ZM253.076 98.1364C247.962 98.1364 243.559 96.929 239.865 94.5142C236.172 92.0994 233.331 88.7732 231.343 84.5355C229.354 80.2978 228.36 75.4564 228.36 70.0114C228.36 64.4716 229.378 59.5829 231.414 55.3452C233.473 51.0838 236.338 47.7576 240.007 45.3665C243.701 42.9517 248.009 41.7443 252.934 41.7443C256.769 41.7443 260.225 42.4545 263.303 43.875C266.381 45.2955 268.902 47.2841 270.867 49.8409C272.832 52.3977 274.051 55.3807 274.525 58.7898H266.144C265.505 56.304 264.084 54.1023 261.882 52.1847C259.704 50.2434 256.769 49.2727 253.076 49.2727C249.809 49.2727 246.944 50.125 244.482 51.8295C242.043 53.5104 240.138 55.8897 238.765 58.9673C237.415 62.0213 236.74 65.608 236.74 69.7273C236.74 73.9413 237.403 77.6108 238.729 80.7358C240.078 83.8608 241.972 86.2874 244.411 88.0156C246.873 89.7438 249.761 90.608 253.076 90.608C255.254 90.608 257.23 90.2292 259.006 89.4716C260.782 88.714 262.285 87.625 263.516 86.2045C264.747 84.7841 265.623 83.0795 266.144 81.0909H274.525C274.051 84.3106 272.879 87.2107 271.009 89.7912C269.162 92.348 266.712 94.384 263.658 95.8991C260.628 97.3906 257.1 98.1364 253.076 98.1364ZM295.157 64.1875V97H286.776V24.2727H295.157V50.9773H295.867C297.145 48.16 299.063 45.9228 301.62 44.2656C304.2 42.5848 307.633 41.7443 311.918 41.7443C315.635 41.7443 318.89 42.4901 321.684 43.9815C324.477 45.4493 326.643 47.7102 328.182 50.7642C329.745 53.7945 330.526 57.6534 330.526 62.3409V97H322.145V62.9091C322.145 58.5767 321.021 55.2268 318.772 52.8594C316.546 50.4683 313.457 49.2727 309.503 49.2727C306.757 49.2727 304.295 49.8527 302.117 51.0128C299.962 52.1728 298.258 53.8655 297.003 56.0909C295.772 58.3163 295.157 61.0152 295.157 64.1875ZM368.727 98.1364C363.472 98.1364 358.938 96.9763 355.126 94.6562C351.339 92.3125 348.415 89.0455 346.355 84.8551C344.319 80.6411 343.301 75.7405 343.301 70.1534C343.301 64.5663 344.319 59.642 346.355 55.3807C348.415 51.0956 351.279 47.7576 354.949 45.3665C358.642 42.9517 362.951 41.7443 367.875 41.7443C370.716 41.7443 373.521 42.2178 376.291 43.1648C379.061 44.1117 381.582 45.6506 383.855 47.7812C386.128 49.8883 387.939 52.6818 389.288 56.1619C390.638 59.642 391.312 63.9271 391.312 69.017V72.5682H349.267V65.3239H382.79C382.79 62.2462 382.174 59.5 380.943 57.0852C379.736 54.6705 378.008 52.7647 375.759 51.3679C373.533 49.9711 370.905 49.2727 367.875 49.2727C364.537 49.2727 361.649 50.1013 359.21 51.7585C356.795 53.392 354.937 55.5227 353.635 58.1506C352.333 60.7784 351.682 63.5956 351.682 66.6023V71.4318C351.682 75.5511 352.392 79.0431 353.812 81.9077C355.257 84.7486 357.257 86.9148 359.814 88.4062C362.371 89.8741 365.342 90.608 368.727 90.608C370.929 90.608 372.918 90.3002 374.693 89.6847C376.492 89.0455 378.043 88.0985 379.345 86.8438C380.647 85.5653 381.653 83.9792 382.364 82.0852L390.46 84.358C389.608 87.1042 388.176 89.5189 386.163 91.6023C384.151 93.6619 381.665 95.2718 378.706 96.4318C375.747 97.5682 372.42 98.1364 368.727 98.1364ZM404.061 97V42.4545H412.158V50.9773H412.868C414.004 48.0653 415.839 45.8045 418.372 44.1946C420.905 42.5611 423.947 41.7443 427.499 41.7443C431.097 41.7443 434.092 42.5611 436.483 44.1946C438.898 45.8045 440.78 48.0653 442.129 50.9773H442.697C444.094 48.16 446.189 45.9228 448.983 44.2656C451.777 42.5848 455.126 41.7443 459.033 41.7443C463.91 41.7443 467.899 43.2713 471 46.3253C474.101 49.3556 475.652 54.0786 475.652 60.4943V97H467.271V60.4943C467.271 56.4697 466.17 53.5933 463.969 51.8651C461.767 50.1368 459.175 49.2727 456.192 49.2727C452.357 49.2727 449.385 50.4328 447.278 52.7528C445.171 55.0492 444.118 57.9612 444.118 61.4886V97H435.595V59.642C435.595 56.5407 434.589 54.0431 432.577 52.1491C430.564 50.2315 427.972 49.2727 424.8 49.2727C422.622 49.2727 420.586 49.8527 418.692 51.0128C416.821 52.1728 415.306 53.7827 414.146 55.8423C413.01 57.8783 412.442 60.2339 412.442 62.9091V97H404.061ZM513.844 98.1364C508.589 98.1364 504.055 96.9763 500.244 94.6562C496.456 92.3125 493.532 89.0455 491.472 84.8551C489.436 80.6411 488.418 75.7405 488.418 70.1534C488.418 64.5663 489.436 59.642 491.472 55.3807C493.532 51.0956 496.397 47.7576 500.066 45.3665C503.759 42.9517 508.068 41.7443 512.992 41.7443C515.833 41.7443 518.638 42.2178 521.408 43.1648C524.178 44.1117 526.7 45.6506 528.972 47.7812C531.245 49.8883 533.056 52.6818 534.406 56.1619C535.755 59.642 536.43 63.9271 536.43 69.017V72.5682H494.384V65.3239H527.907C527.907 62.2462 527.291 59.5 526.06 57.0852C524.853 54.6705 523.125 52.7647 520.876 51.3679C518.65 49.9711 516.022 49.2727 512.992 49.2727C509.654 49.2727 506.766 50.1013 504.327 51.7585C501.913 53.392 500.054 55.5227 498.752 58.1506C497.45 60.7784 496.799 63.5956 496.799 66.6023V71.4318C496.799 75.5511 497.509 79.0431 498.93 81.9077C500.374 84.7486 502.374 86.9148 504.931 88.4062C507.488 89.8741 510.459 90.608 513.844 90.608C516.046 90.608 518.035 90.3002 519.81 89.6847C521.61 89.0455 523.16 88.0985 524.462 86.8438C525.764 85.5653 526.771 83.9792 527.481 82.0852L535.577 84.358C534.725 87.1042 533.293 89.5189 531.281 91.6023C529.268 93.6619 526.782 95.2718 523.823 96.4318C520.864 97.5682 517.538 98.1364 513.844 98.1364ZM602.729 24.2727V97H593.923V33.5057H593.496L575.741 45.2955V36.3466L593.923 24.2727H602.729Z" fill="#737370"/>
<path d="M1403.31 54.6705L1395.78 56.8011C1395.3 55.5464 1394.61 54.3272 1393.68 53.1435C1392.78 51.9361 1391.55 50.9418 1389.99 50.1605C1388.43 49.3793 1386.43 48.9886 1383.99 48.9886C1380.65 48.9886 1377.87 49.758 1375.64 51.2969C1373.44 52.812 1372.34 54.7415 1372.34 57.0852C1372.34 59.1686 1373.1 60.8139 1374.61 62.0213C1376.13 63.2287 1378.5 64.2348 1381.72 65.0398L1389.81 67.0284C1394.69 68.2121 1398.32 70.0232 1400.71 72.4616C1403.11 74.8764 1404.3 77.9896 1404.3 81.8011C1404.3 84.9261 1403.4 87.7197 1401.6 90.1818C1399.83 92.6439 1397.34 94.5852 1394.14 96.0057C1390.95 97.4261 1387.23 98.1364 1382.99 98.1364C1377.43 98.1364 1372.83 96.929 1369.18 94.5142C1365.53 92.0994 1363.23 88.572 1362.26 83.9318L1370.21 81.9432C1370.97 84.8788 1372.4 87.0805 1374.51 88.5483C1376.64 90.0161 1379.42 90.75 1382.85 90.75C1386.76 90.75 1389.86 89.9214 1392.16 88.2642C1394.48 86.5833 1395.64 84.571 1395.64 82.2273C1395.64 80.3333 1394.97 78.7472 1393.65 77.4688C1392.32 76.1667 1390.29 75.196 1387.54 74.5568L1378.45 72.4261C1373.45 71.2424 1369.78 69.4077 1367.44 66.9219C1365.12 64.4124 1363.96 61.2756 1363.96 57.5114C1363.96 54.4337 1364.82 51.7112 1366.55 49.3438C1368.3 46.9763 1370.68 45.1179 1373.69 43.7685C1376.72 42.419 1380.15 41.7443 1383.99 41.7443C1389.39 41.7443 1393.62 42.928 1396.7 45.2955C1399.8 47.6629 1402 50.7879 1403.31 54.6705ZM1439.08 98.1364C1433.96 98.1364 1429.56 96.929 1425.87 94.5142C1422.17 92.0994 1419.33 88.7732 1417.34 84.5355C1415.35 80.2978 1414.36 75.4564 1414.36 70.0114C1414.36 64.4716 1415.38 59.5829 1417.41 55.3452C1419.47 51.0838 1422.34 47.7576 1426.01 45.3665C1429.7 42.9517 1434.01 41.7443 1438.93 41.7443C1442.77 41.7443 1446.23 42.4545 1449.3 43.875C1452.38 45.2955 1454.9 47.2841 1456.87 49.8409C1458.83 52.3977 1460.05 55.3807 1460.52 58.7898H1452.14C1451.5 56.304 1450.08 54.1023 1447.88 52.1847C1445.7 50.2434 1442.77 49.2727 1439.08 49.2727C1435.81 49.2727 1432.94 50.125 1430.48 51.8295C1428.04 53.5104 1426.14 55.8897 1424.76 58.9673C1423.42 62.0213 1422.74 65.608 1422.74 69.7273C1422.74 73.9413 1423.4 77.6108 1424.73 80.7358C1426.08 83.8608 1427.97 86.2874 1430.41 88.0156C1432.87 89.7438 1435.76 90.608 1439.08 90.608C1441.25 90.608 1443.23 90.2292 1445.01 89.4716C1446.78 88.714 1448.28 87.625 1449.52 86.2045C1450.75 84.7841 1451.62 83.0795 1452.14 81.0909H1460.52C1460.05 84.3106 1458.88 87.2107 1457.01 89.7912C1455.16 92.348 1452.71 94.384 1449.66 95.8991C1446.63 97.3906 1443.1 98.1364 1439.08 98.1364ZM1481.16 64.1875V97H1472.78V24.2727H1481.16V50.9773H1481.87C1483.15 48.16 1485.06 45.9228 1487.62 44.2656C1490.2 42.5848 1493.63 41.7443 1497.92 41.7443C1501.63 41.7443 1504.89 42.4901 1507.68 43.9815C1510.48 45.4493 1512.64 47.7102 1514.18 50.7642C1515.74 53.7945 1516.53 57.6534 1516.53 62.3409V97H1508.15V62.9091C1508.15 58.5767 1507.02 55.2268 1504.77 52.8594C1502.55 50.4683 1499.46 49.2727 1495.5 49.2727C1492.76 49.2727 1490.29 49.8527 1488.12 51.0128C1485.96 52.1728 1484.26 53.8655 1483 56.0909C1481.77 58.3163 1481.16 61.0152 1481.16 64.1875ZM1554.73 98.1364C1549.47 98.1364 1544.94 96.9763 1541.13 94.6562C1537.34 92.3125 1534.41 89.0455 1532.36 84.8551C1530.32 80.6411 1529.3 75.7405 1529.3 70.1534C1529.3 64.5663 1530.32 59.642 1532.36 55.3807C1534.41 51.0956 1537.28 47.7576 1540.95 45.3665C1544.64 42.9517 1548.95 41.7443 1553.88 41.7443C1556.72 41.7443 1559.52 42.2178 1562.29 43.1648C1565.06 44.1117 1567.58 45.6506 1569.86 47.7812C1572.13 49.8883 1573.94 52.6818 1575.29 56.1619C1576.64 59.642 1577.31 63.9271 1577.31 69.017V72.5682H1535.27V65.3239H1568.79C1568.79 62.2462 1568.17 59.5 1566.94 57.0852C1565.74 54.6705 1564.01 52.7647 1561.76 51.3679C1559.53 49.9711 1556.91 49.2727 1553.88 49.2727C1550.54 49.2727 1547.65 50.1013 1545.21 51.7585C1542.8 53.392 1540.94 55.5227 1539.63 58.1506C1538.33 60.7784 1537.68 63.5956 1537.68 66.6023V71.4318C1537.68 75.5511 1538.39 79.0431 1539.81 81.9077C1541.26 84.7486 1543.26 86.9148 1545.81 88.4062C1548.37 89.8741 1551.34 90.608 1554.73 90.608C1556.93 90.608 1558.92 90.3002 1560.69 89.6847C1562.49 89.0455 1564.04 88.0985 1565.35 86.8438C1566.65 85.5653 1567.65 83.9792 1568.36 82.0852L1576.46 84.358C1575.61 87.1042 1574.18 89.5189 1572.16 91.6023C1570.15 93.6619 1567.67 95.2718 1564.71 96.4318C1561.75 97.5682 1558.42 98.1364 1554.73 98.1364ZM1590.06 97V42.4545H1598.16V50.9773H1598.87C1600 48.0653 1601.84 45.8045 1604.37 44.1946C1606.91 42.5611 1609.95 41.7443 1613.5 41.7443C1617.1 41.7443 1620.09 42.5611 1622.48 44.1946C1624.9 45.8045 1626.78 48.0653 1628.13 50.9773H1628.7C1630.09 48.16 1632.19 45.9228 1634.98 44.2656C1637.78 42.5848 1641.13 41.7443 1645.03 41.7443C1649.91 41.7443 1653.9 43.2713 1657 46.3253C1660.1 49.3556 1661.65 54.0786 1661.65 60.4943V97H1653.27V60.4943C1653.27 56.4697 1652.17 53.5933 1649.97 51.8651C1647.77 50.1368 1645.17 49.2727 1642.19 49.2727C1638.36 49.2727 1635.39 50.4328 1633.28 52.7528C1631.17 55.0492 1630.12 57.9612 1630.12 61.4886V97H1621.6V59.642C1621.6 56.5407 1620.59 54.0431 1618.58 52.1491C1616.56 50.2315 1613.97 49.2727 1610.8 49.2727C1608.62 49.2727 1606.59 49.8527 1604.69 51.0128C1602.82 52.1728 1601.31 53.7827 1600.15 55.8423C1599.01 57.8783 1598.44 60.2339 1598.44 62.9091V97H1590.06ZM1699.84 98.1364C1694.59 98.1364 1690.06 96.9763 1686.24 94.6562C1682.46 92.3125 1679.53 89.0455 1677.47 84.8551C1675.44 80.6411 1674.42 75.7405 1674.42 70.1534C1674.42 64.5663 1675.44 59.642 1677.47 55.3807C1679.53 51.0956 1682.4 47.7576 1686.07 45.3665C1689.76 42.9517 1694.07 41.7443 1698.99 41.7443C1701.83 41.7443 1704.64 42.2178 1707.41 43.1648C1710.18 44.1117 1712.7 45.6506 1714.97 47.7812C1717.25 49.8883 1719.06 52.6818 1720.41 56.1619C1721.75 59.642 1722.43 63.9271 1722.43 69.017V72.5682H1680.38V65.3239H1713.91C1713.91 62.2462 1713.29 59.5 1712.06 57.0852C1710.85 54.6705 1709.12 52.7647 1706.88 51.3679C1704.65 49.9711 1702.02 49.2727 1698.99 49.2727C1695.65 49.2727 1692.77 50.1013 1690.33 51.7585C1687.91 53.392 1686.05 55.5227 1684.75 58.1506C1683.45 60.7784 1682.8 63.5956 1682.8 66.6023V71.4318C1682.8 75.5511 1683.51 79.0431 1684.93 81.9077C1686.37 84.7486 1688.37 86.9148 1690.93 88.4062C1693.49 89.8741 1696.46 90.608 1699.84 90.608C1702.05 90.608 1704.03 90.3002 1705.81 89.6847C1707.61 89.0455 1709.16 88.0985 1710.46 86.8438C1711.76 85.5653 1712.77 83.9792 1713.48 82.0852L1721.58 84.358C1720.73 87.1042 1719.29 89.5189 1717.28 91.6023C1715.27 93.6619 1712.78 95.2718 1709.82 96.4318C1706.86 97.5682 1703.54 98.1364 1699.84 98.1364ZM1763.16 97V90.608L1787.17 64.3295C1789.98 61.2519 1792.3 58.5767 1794.13 56.304C1795.95 54.0076 1797.3 51.8532 1798.18 49.8409C1799.08 47.8049 1799.52 45.6742 1799.52 43.4489C1799.52 40.892 1798.91 38.6785 1797.68 36.8082C1796.47 34.938 1794.81 33.4938 1792.71 32.4759C1790.6 31.4579 1788.23 30.9489 1785.6 30.9489C1782.81 30.9489 1780.37 31.5289 1778.29 32.6889C1776.23 33.8253 1774.63 35.4233 1773.5 37.483C1772.38 39.5426 1771.83 41.9574 1771.83 44.7273H1763.45C1763.45 40.4659 1764.43 36.7254 1766.39 33.5057C1768.36 30.286 1771.03 27.7765 1774.42 25.9773C1777.83 24.178 1781.65 23.2784 1785.89 23.2784C1790.15 23.2784 1793.93 24.178 1797.22 25.9773C1800.51 27.7765 1803.09 30.2031 1804.96 33.2571C1806.83 36.3111 1807.76 39.7083 1807.76 43.4489C1807.76 46.1241 1807.28 48.7401 1806.31 51.2969C1805.36 53.83 1803.7 56.6591 1801.34 59.7841C1798.99 62.8854 1795.74 66.6733 1791.57 71.1477L1775.24 88.6193V89.1875H1809.04V97H1763.16Z" fill="#737370"/>
</svg>
